<?xml version="1.0" standalone="no"?>
<!DOCTYPE svg PUBLIC "-//W3C//DTD SVG 20010904//EN"
 "http://www.w3.org/TR/2001/REC-SVG-20010904/DTD/svg10.dtd">
<svg version="1.0" xmlns="http://www.w3.org/2000/svg"
 width="16.000000pt" height="16.000000pt" viewBox="0 0 16.000000 16.000000"
 preserveAspectRatio="xMidYMid meet">

<g transform="translate(0.000000,16.000000) scale(0.100000,-0.100000)"
fill="#000000" stroke="none">
<path d="M68 152 c-10 -2 -18 -12 -18 -23 0 -12 -7 -19 -20 -19 -16 0 -20 -7
-20 -30 0 -23 4 -30 20 -30 13 0 20 -7 20 -20 0 -16 7 -20 30 -20 23 0 30 5
30 19 0 10 9 21 20 24 28 7 28 57 0 57 -13 0 -20 7 -20 19 0 21 -16 29 -42 23z
m32 -32 c0 -13 7 -20 20 -20 13 0 20 -7 20 -20 0 -13 -7 -20 -20 -20 -13 0
-20 -7 -20 -20 0 -13 -7 -20 -20 -20 -13 0 -20 7 -20 20 0 13 -7 20 -20 20
-13 0 -20 7 -20 20 0 13 7 20 20 20 13 0 20 7 20 20 0 13 7 20 20 20 13 0 20
-7 20 -20z"/>
</g>
</svg>
